<svg width="128" height="128" viewBox="0 0 128 128" fill="none" xmlns="http://www.w3.org/2000/svg">
  <defs>
    <linearGradient id="bg" x1="24" y1="14" x2="100" y2="114" gradientUnits="userSpaceOnUse">
      <stop stop-color="#FFFCEB"/>
      <stop offset="0.25" stop-color="#FFF0A7"/>
      <stop offset="0.62" stop-color="#FFD95C"/>
      <stop offset="1" stop-color="#D7B22D"/>
    </linearGradient>
    <linearGradient id="edge" x1="23" y1="15" x2="100" y2="114" gradientUnits="userSpaceOnUse">
      <stop stop-color="#FFF7CA"/>
      <stop offset="1" stop-color="#A48518"/>
    </linearGradient>
    <radialGradient id="shine" cx="0" cy="0" r="1" gradientUnits="userSpaceOnUse" gradientTransform="translate(52 34) rotate(51.6) scale(40 31)">
      <stop stop-color="white" stop-opacity="0.95"/>
      <stop offset="1" stop-color="white" stop-opacity="0"/>
    </radialGradient>
  </defs>
  <path d="M64 10L98 20L116 46L108 92L64 118L20 92L12 46L30 20L64 10Z" fill="url(#edge)"/>
  <path d="M64 17L93 26L107 48L100 88L64 110L28 88L21 48L35 26L64 17Z" fill="url(#bg)"/>
  <path d="M64 17L79 47L64 110L49 47L64 17Z" fill="#FFFFFF" fill-opacity="0.18"/>
  <path d="M35 26L49 47L28 88L21 48L35 26Z" fill="#8A7123" fill-opacity="0.14"/>
  <path d="M93 26L79 47L100 88L107 48L93 26Z" fill="#8A7123" fill-opacity="0.14"/>
  <path d="M35 26H93L79 47H49L35 26Z" fill="#FFFFFF" fill-opacity="0.24"/>
  <path d="M49 47H79L64 110L49 47Z" fill="#8A6A1C" fill-opacity="0.14"/>
  <ellipse cx="52" cy="34" rx="23" ry="15" fill="url(#shine)"/>
  <path d="M64 19L91 27L103 48L96 85L64 104L32 85L25 48L37 27L64 19Z" stroke="#FFFDF2" stroke-opacity="0.74" stroke-width="2"/>
</svg>
